<?xml version="1.0" encoding="UTF-8"?>
<svg width="100px" height="50px" viewBox="0 0 100 50" version="1.1" xmlns="http://www.w3.org/2000/svg" xmlns:xlink="http://www.w3.org/1999/xlink">
    <!-- Generator: Sketch 50 (54983) - http://www.bohemiancoding.com/sketch -->
    <title>坎德拉英文</title>
    <desc>Created with Sketch.</desc>
    <defs>
        <polygon id="path-1" points="0 7.46887967e-05 89.9997759 7.46887967e-05 89.9997759 7.63614523 0 7.63614523"></polygon>
    </defs>
    <g id="坎德拉英文" stroke="none" stroke-width="1" fill="none" fill-rule="evenodd">
        <g id="Group" transform="translate(5.000000, 21.000000)">
            <mask id="mask-2" fill="white">
                <use xlink:href="#path-1"></use>
            </mask>
            <g id="Clip-2"></g>
            <path d="M2.18180913,-3.73443983e-05 L11.4544232,-3.73443983e-05 L11.4544232,1.63639419 L2.18180913,1.63639419 C1.88193361,1.63639419 1.63620747,1.88212033 1.63620747,2.18162241 L1.63620747,5.45448548 C1.63620747,5.754361 1.88193361,5.99971369 2.18180913,5.99971369 L11.4544232,5.99971369 L11.4544232,7.63614523 L2.18180913,7.63614523 C0.98193361,7.63614523 -0.00022406639,6.654361 -0.00022406639,5.45448548 L-0.00022406639,2.18162241 C-0.00022406639,0.981746888 0.98193361,-3.73443983e-05 2.18180913,-3.73443983e-05 Z M22.9090705,7.63614523 L22.9090705,5.04556432 L14.7272863,5.04556432 L14.7272863,7.63614523 L13.0908548,7.63614523 L13.0908548,3.40913278 L24.5455021,3.40913278 L24.5455021,7.63614523 L22.9090705,7.63614523 Z M13.0908548,1.64647718 L24.5455021,1.64647718 L24.5455021,-3.73443983e-05 L13.0908548,-3.73443983e-05 L13.0908548,1.64647718 Z M27.8179917,-3.73443983e-05 L36.0001494,5.73606224 L36.0001494,-3.73443983e-05 L37.6362075,-3.73443983e-05 L37.6362075,7.63614523 L36.0001494,7.63614523 L27.8179917,1.90004564 L27.8179917,7.63614523 L26.1819336,7.63614523 L26.1819336,-3.73443983e-05 L27.8179917,-3.73443983e-05 Z M52.3637178,1.64647718 L63.8183651,1.64647718 L63.8183651,-3.73443983e-05 L52.3637178,-3.73443983e-05 L52.3637178,1.64647718 Z M54.0001494,5.99000415 L63.8183651,5.99000415 L63.8183651,7.63614523 L53.9478672,7.63614523 L52.3637178,7.63614523 L52.3637178,3.01963071 L63.8183651,3.01963071 L63.8183651,4.55597925 L54.0001494,4.55597925 L54.0001494,5.99000415 Z M67.0908548,5.99000415 L76.909444,5.99000415 L76.909444,7.63614523 L65.4544232,7.63614523 L65.4544232,-3.73443983e-05 L67.0908548,-3.73443983e-05 L67.0908548,5.99000415 Z M78.5451286,-3.73443983e-05 L88.3771618,-3.73443983e-05 C89.3417676,-3.73443983e-05 89.9997759,0.457058091 89.9997759,1.64647718 L78.5451286,1.64647718 L78.5451286,-3.73443983e-05 Z M88.3637178,7.63614523 L88.3637178,4.90925726 L80.1819336,4.90925726 L80.1819336,7.63614523 L78.5451286,7.63614523 L78.5451286,3.27282573 L89.9997759,3.27282573 L89.9997759,6.24543983 C89.9997759,7.23394606 89.4799419,7.63614523 88.3637178,7.63614523 Z M46.9088216,5.99000415 L40.9135519,5.99000415 L40.9135519,1.64647718 L46.9088216,1.64647718 C48.1120581,1.64647718 49.0901079,2.61182988 49.0901079,3.81805394 C49.0901079,5.02315768 48.1135519,5.99000415 46.9088216,5.99000415 Z M39.272639,-3.73443983e-05 L39.272639,7.63614523 L46.9088216,7.63614523 C49.0172863,7.63614523 50.7269129,5.92689212 50.7269129,3.81805394 C50.7269129,1.70958921 49.0172863,-3.73443983e-05 46.9088216,-3.73443983e-05 L39.272639,-3.73443983e-05 Z" id="Fill-1" fill="#ffffff" mask="url(#mask-2)"></path>
        </g>
    </g>
</svg>